<?xml version="1.0" encoding="UTF-8" standalone="no"?>
<!-- Created with Inkscape (http://www.inkscape.org/) -->

<svg
   width="103.29875mm"
   height="35.33482mm"
   viewBox="0 0 103.29875 35.33482"
   version="1.1"
   id="svg1"
   xmlns="http://www.w3.org/2000/svg"
   xmlns:svg="http://www.w3.org/2000/svg">
  <defs
     id="defs1" />
  <g
     id="layer1"
     transform="translate(-28.200015,-67.91303)">
    <g
       id="g2"
       transform="matrix(0.26458333,0,0,0.26458333,24.298961,60.437517)">
      <path
         id="path2"
         style="fill:#606163;fill-opacity:1;stroke:none;stroke-width:1px;stroke-linecap:butt;stroke-linejoin:miter;stroke-opacity:1"
         d="m 99.037109,28.253906 v 52.251953 l 19.140621,44.355471 c 0,0 -6.98871,-0.30431 -15.79882,1.82226 -8.81012,2.12658 -15.542972,6.56446 -15.542972,6.56446 0,0 0.69201,0.21849 0.722656,0.22851 A 86.119835,46.768707 0 0 1 94,133.24805 a 86.119835,46.768707 0 0 1 79.31055,28.55078 l 0.01,0.004 z" />
      <path
         id="path1"
         style="fill:#b72e33;fill-opacity:1;stroke:none;stroke-width:1px;stroke-linecap:butt;stroke-linejoin:miter;stroke-opacity:1"
         d="M 91.746094,28.253906 14.744141,161.7207 c 0,0 0.08538,-0.0369 0.08594,-0.0371 a 86.119835,46.768707 0 0 1 51.996094,-25.9414 c 0.0073,-0.01 0.109375,-0.125 0.109375,-0.125 L 92.658203,80.810547 Z" />
    </g>
    <path
       style="font-size:24.187px;line-height:1.25;font-family:'Poiret One';-inkscape-font-specification:'Poiret One';font-variant-ligatures:none;fill:#b72e33;stroke-width:0.264583"
       d="m 120.1543,83.577329 c -3.26184,0.206459 -6.06133,3.321789 -5.73789,6.610533 0.15834,3.291966 3.29842,6.141912 6.61344,5.829112 1.72941,-0.0062 3.37014,-0.868755 4.48968,-2.164255 v -3.146484 c -0.89666,1.310563 -1.8003,2.802404 -3.40004,3.326399 -2.39226,0.94898 -5.26139,-0.751661 -5.77658,-3.225262 -0.59441,-2.294465 0.97508,-4.799703 3.24554,-5.378578 2.04089,-0.585909 4.17102,0.633932 5.20558,2.381523 0.31871,0.375037 0.89263,1.542293 0.7255,0.409199 v -2.499609 c -1.34273,-1.528232 -3.32916,-2.360806 -5.36523,-2.142578 z"
       id="path12" />
    <path
       style="font-size:24.187px;line-height:1.25;font-family:'Poiret One';-inkscape-font-specification:'Poiret One';font-variant-ligatures:none;fill:#b72e33;stroke-width:0.264583"
       d="m 106.31641,83.528499 c -3.24328,0.242476 -5.98548,3.36803 -5.66208,6.633988 0.128,3.301609 3.29637,6.071896 6.58303,5.806098 1.52593,-0.07302 3.02117,-0.735325 4.08881,-1.83071 0.12717,0.464241 -0.25482,1.437633 0.2,1.574218 0.50981,-0.06754 1.29174,0.137056 1.63203,-0.1 V 83.768734 h -1.83203 c -0.085,0.367263 0.17463,1.575075 -0.13086,1.404297 -1.30571,-1.188734 -3.11564,-1.817738 -4.8789,-1.644532 z m 1.08789,1.734377 c 2.63306,0.232379 4.57829,3.138671 3.81916,5.668316 -0.55173,2.235634 -2.99941,3.776795 -5.25225,3.204451 -2.40427,-0.491687 -4.05938,-3.172562 -3.34928,-5.539208 0.55851,-2.036804 2.64047,-3.604303 4.78237,-3.333559 z"
       id="path11" />
    <path
       style="font-size:24.187px;line-height:1.25;font-family:'Poiret One';-inkscape-font-specification:'Poiret One';font-variant-ligatures:none;fill:#b72e33;stroke-width:0.264583"
       d="m 97.240234,83.510919 c -0.935685,0.04799 -1.85247,0.390662 -2.583984,0.976563 0.26748,-0.850162 -0.408812,-0.756553 -1.029297,-0.71875 -0.796013,-0.218669 -0.914545,0.240142 -0.802734,0.929297 v 11.014062 h 1.832031 c 0.03369,-2.767885 -0.06762,-5.543613 0.05078,-8.30664 0.334356,-1.75025 2.608887,-2.828895 4.090251,-1.708473 0.525188,0.375303 0.960795,0.859856 1.446859,1.282691 v -2.451172 c -0.856169,-0.667055 -1.90022,-1.109586 -3.003906,-1.017578 z"
       id="path10" />
    <path
       style="font-size:24.187px;line-height:1.25;font-family:'Poiret One';-inkscape-font-specification:'Poiret One';font-variant-ligatures:none;fill:#b72e33;stroke-width:0.264583"
       d="m 126.27344,79.921076 c 0.0175,3.941754 -0.0346,7.885826 0.0254,11.826171 0.13658,2.360872 2.39345,4.225295 4.71906,4.113273 0.80023,0.238815 0.32109,-0.852625 0.45086,-1.310929 0.20452,-0.703094 -0.68925,-0.315305 -1.08398,-0.476172 -1.51044,-0.23019 -2.4735,-1.788239 -2.27735,-3.253515 v -5.291407 h 3.33789 v -1.736328 h -3.33789 v -4.40039 h -1.83398 v 0.529297 z"
       id="path9" />
    <path
       style="font-size:24.187px;line-height:1.25;font-family:'Poiret One';-inkscape-font-specification:'Poiret One';font-variant-ligatures:none;fill:#b72e33;stroke-width:0.264583"
       d="m 84.091797,77.509766 c 0.145896,0.437307 -0.354301,1.520706 0.4,1.349609 h 3.785547 v 16.85272 h 1.855468 v -16.85272 h 4.136719 V 76.980469 H 84.091797 Z"
       id="text1" />
    <path
       style="color:#000000;fill:#606163;fill-opacity:1;stroke-width:1;-inkscape-stroke:none"
       d="m 55.840618,77.51 0.456478,0.82067 h 13.833737 l 10.035702,17.381425 h 8.110809 V 94.891416 H 80.639999 L 70.604298,77.51 Z"
       id="path3" />
    <path
       id="path4"
       style="color:#000000;fill:#606163;fill-opacity:1;stroke-width:1;-inkscape-stroke:none"
       d="M 79.412109,77.246094 C 76.11849,82.951172 72.82487,88.65625 69.53125,94.361328 c -1.641276,0 -3.282552,0 -4.923828,0 0.349211,0.626812 0.695891,1.255038 1.046875,1.88086 1.653646,0 3.307292,-10e-7 4.960937,0 3.346501,-5.793433 6.689862,-11.588682 10.035157,-17.382813 1.579427,0 3.158854,0 4.738281,0 0,-0.626302 0,-1.252604 0,-1.878906 -1.940755,0 -3.881511,0 -5.822266,0 -0.05143,0.08854 -0.102864,0.177083 -0.154297,0.265625 z" />
  </g>
</svg>
